<svg width="20" height="20" viewBox="0 0 20 20" fill="none" xmlns="http://www.w3.org/2000/svg">
<path d="M10 0C4.47734 0 0 4.47734 0 10C0 12.7617 1.11953 15.2617 2.92891 17.0711L1.02422 18.9758C0.646094 19.3539 0.914063 20 1.44844 20H10C15.5227 20 20 15.5227 20 10C20 4.47734 15.5227 0 10 0Z" fill="#FF4500"/>
<path d="M12.0332 4.71504C12.2066 5.4502 12.8668 5.99785 13.6551 5.99785C14.5754 5.99785 15.3215 5.25176 15.3215 4.33145C15.3215 3.41113 14.5754 2.66504 13.6551 2.66504C12.8504 2.66504 12.1793 3.23535 12.023 3.99395C10.6754 4.13848 9.62305 5.28144 9.62305 6.6666C9.62305 6.66973 9.62305 6.67207 9.62305 6.67519C8.15742 6.73691 6.81914 7.1541 5.75664 7.81269C5.36211 7.50723 4.8668 7.32519 4.3293 7.32519C3.03945 7.32519 1.99414 8.37051 1.99414 9.66035C1.99414 10.5963 2.54414 11.4025 3.33867 11.7752C3.41602 14.4861 6.36992 16.6666 10.0035 16.6666C13.6371 16.6666 16.5949 14.4838 16.6684 11.7705C17.4566 11.3955 18.002 10.5916 18.002 9.66113C18.002 8.37129 16.9566 7.32598 15.6668 7.32598C15.1316 7.32598 14.6387 7.50645 14.2449 7.80957C13.173 7.14629 11.8199 6.7291 10.3395 6.67363C10.3395 6.67129 10.3395 6.66973 10.3395 6.66738C10.3395 5.67519 11.077 4.85176 12.0332 4.7166V4.71504ZM5.66289 11.1424C5.70195 10.2955 6.26445 9.64551 6.91836 9.64551C7.57227 9.64551 8.07226 10.3322 8.0332 11.1791C7.99414 12.026 7.50586 12.3338 6.85117 12.3338C6.19648 12.3338 5.62383 11.9893 5.66289 11.1424ZM13.0895 9.64551C13.7441 9.64551 14.3066 10.2955 14.3449 11.1424C14.384 11.9893 13.8105 12.3338 13.1566 12.3338C12.5027 12.3338 12.0137 12.0268 11.9746 11.1791C11.9355 10.3322 12.4348 9.64551 13.0895 9.64551ZM12.3113 13.1018C12.434 13.1143 12.5121 13.2416 12.4645 13.3557C12.0621 14.3174 11.1121 14.9932 10.0035 14.9932C8.89492 14.9932 7.9457 14.3174 7.54258 13.3557C7.49492 13.2416 7.57305 13.1143 7.6957 13.1018C8.41445 13.0291 9.1918 12.9893 10.0035 12.9893C10.8152 12.9893 11.5918 13.0291 12.3113 13.1018Z" fill="white"/>
</svg>
